<svg width="105" height="104" viewBox="0 0 105 104" fill="none" xmlns="http://www.w3.org/2000/svg">
    <circle cx="52.5" cy="51.6514" r="51.6514" fill="#EDF3F9" />
    <path
        d="M64.7904 33.124C67.4082 31.1618 70.9531 31.1618 73.5709 33.124L86.1012 42.516C88.7191 44.4782 89.8145 47.9563 88.8146 51.1312L84.0284 66.3279C83.0285 69.5028 80.1607 71.6523 76.9248 71.6523H61.4365C58.2007 71.6523 55.3328 69.5028 54.3329 66.3279L49.5467 51.1312C48.5468 47.9563 49.6422 44.4782 52.2601 42.516L64.7904 33.124Z"
        fill="url(#paint0_linear_3726_12053)" />
    <g style="mix-blend-mode:overlay" opacity="0.5">
        <path
            d="M78.4605 61.7501L81.4519 51.9515C81.678 51.2108 81.7327 50.4446 81.6329 49.7083L74.014 53.0981C73.4057 53.367 72.6996 53.1002 72.4036 52.4895L70.2987 48.1465C69.838 47.196 68.5233 47.196 68.0626 48.1465L65.9578 52.4895C65.6618 53.1002 64.9557 53.367 64.3473 53.0981L56.7284 49.7083C56.6287 50.4446 56.6834 51.2108 56.9095 51.9515L59.9008 61.7501C60.5258 63.7972 62.3182 65.1832 64.3406 65.1832H74.0208C76.0432 65.1832 77.8356 63.7972 78.4605 61.7501Z"
            fill="white" />
    </g>
    <path opacity="0.5" fill-rule="evenodd" clip-rule="evenodd"
        d="M15.8193 53.1523C15.8193 51.7716 16.8827 50.6523 18.1943 50.6523H43.4443C44.756 50.6523 45.8193 51.7716 45.8193 53.1523C45.8193 54.5331 44.756 55.6523 43.4443 55.6523H18.1943C16.8827 55.6523 15.8193 54.5331 15.8193 53.1523Z"
        fill="#0346FF" />
    <path fill-rule="evenodd" clip-rule="evenodd"
        d="M27.8193 44.9857C27.8193 43.697 28.8342 42.6523 30.086 42.6523H44.4193C45.6712 42.6523 46.686 43.697 46.686 44.9857C46.686 46.2743 45.6712 47.319 44.4193 47.319H30.086C28.8342 47.319 27.8193 46.2743 27.8193 44.9857ZM31.2193 61.319C31.2193 60.0303 32.2342 58.9857 33.486 58.9857H45.5527C46.8045 58.9857 47.8193 60.0303 47.8193 61.319C47.8193 62.6077 46.8045 63.6523 45.5527 63.6523H33.486C32.2342 63.6523 31.2193 62.6077 31.2193 61.319Z"
        fill="#0346FF" />
    <defs>
        <linearGradient id="paint0_linear_3726_12053" x1="49.1807" y1="31.6523" x2="89.1807"
            y2="71.6523" gradientUnits="userSpaceOnUse">
            <stop offset="0.108859" stop-color="#66D4F7" />
            <stop offset="0.490968" stop-color="#4D92FF" />
            <stop offset="0.849761" stop-color="#BB65FF" />
        </linearGradient>
    </defs>
</svg>