<svg width="33" height="32" viewBox="0 0 33 32" fill="none" xmlns="http://www.w3.org/2000/svg">
<path fill-rule="evenodd" clip-rule="evenodd" d="M29.8298 15.9993C29.8298 19.5356 28.425 22.927 25.9245 25.4274C23.424 27.9279 20.0326 29.3327 16.4964 29.3327C12.9602 29.3327 9.56881 27.9279 7.06833 25.4274C4.56784 22.927 3.16309 19.5356 3.16309 15.9993C3.16309 12.4631 4.56784 9.07174 7.06833 6.57126C9.56881 4.07077 12.9602 2.66602 16.4964 2.66602C20.0326 2.66602 23.424 4.07077 25.9245 6.57126C28.425 9.07174 29.8298 12.4631 29.8298 15.9993ZM18.1631 22.666C18.1631 23.108 17.9875 23.532 17.6749 23.8445C17.3624 24.1571 16.9384 24.3327 16.4964 24.3327C16.0544 24.3327 15.6305 24.1571 15.3179 23.8445C15.0053 23.532 14.8298 23.108 14.8298 22.666C14.8298 22.224 15.0053 21.8001 15.3179 21.4875C15.6305 21.1749 16.0544 20.9993 16.4964 20.9993C16.9384 20.9993 17.3624 21.1749 17.6749 21.4875C17.9875 21.8001 18.1631 22.224 18.1631 22.666ZM16.4964 7.66602C16.0544 7.66602 15.6305 7.84161 15.3179 8.15417C15.0053 8.46673 14.8298 8.89066 14.8298 9.33268V15.7215C14.8298 16.1636 15.0053 16.5875 15.3179 16.9C15.6305 17.2126 16.0544 17.3882 16.4964 17.3882C16.9384 17.3882 17.3624 17.2126 17.6749 16.9C17.9875 16.5875 18.1631 16.1636 18.1631 15.7215V9.33268C18.1631 8.89066 17.9875 8.46673 17.6749 8.15417C17.3624 7.84161 16.9384 7.66602 16.4964 7.66602Z" fill="#111928"/>
</svg>
